<svg width="56" height="56" viewBox="0 0 56 56" fill="none" xmlns="http://www.w3.org/2000/svg">
<path d="M28 33.625C31.1066 33.625 33.625 31.1066 33.625 28C33.625 24.8934 31.1066 22.375 28 22.375C24.8934 22.375 22.375 24.8934 22.375 28C22.375 31.1066 24.8934 33.625 28 33.625Z" stroke="white" stroke-width="1.6" stroke-linecap="round" stroke-linejoin="round"/>
<path d="M28 19.375V18.625" stroke="white" stroke-width="1.6" stroke-linecap="round" stroke-linejoin="round"/>
<path d="M21.8961 21.8961L21.3711 21.3711" stroke="white" stroke-width="1.6" stroke-linecap="round" stroke-linejoin="round"/>
<path d="M19.375 28H18.625" stroke="white" stroke-width="1.6" stroke-linecap="round" stroke-linejoin="round"/>
<path d="M21.8961 34.1016L21.3711 34.6266" stroke="white" stroke-width="1.6" stroke-linecap="round" stroke-linejoin="round"/>
<path d="M28 36.6211V37.3711" stroke="white" stroke-width="1.6" stroke-linecap="round" stroke-linejoin="round"/>
<path d="M34.1016 34.1016L34.6266 34.6266" stroke="white" stroke-width="1.6" stroke-linecap="round" stroke-linejoin="round"/>
<path d="M36.6211 28H37.3711" stroke="white" stroke-width="1.6" stroke-linecap="round" stroke-linejoin="round"/>
<path d="M34.1016 21.8961L34.6266 21.3711" stroke="white" stroke-width="1.6" stroke-linecap="round" stroke-linejoin="round"/>
<rect x="0.7" y="0.7" width="54.6" height="54.6" rx="27.3" stroke="white" stroke-width="1.4"/>
</svg>
