<svg width="56" height="56" viewBox="0 0 56 56" fill="none" xmlns="http://www.w3.org/2000/svg">
<path d="M37.0282 30.0906C36.9799 29.9348 36.8826 29.7987 36.7509 29.7024C36.6192 29.6062 36.46 29.5549 36.2969 29.5562L36.0907 29.5937C34.7479 29.9643 33.3308 29.9721 31.9839 29.6163C30.6371 29.2605 29.4088 28.5538 28.4243 27.5683C27.4397 26.5828 26.7342 25.3538 26.3797 24.0066C26.0252 22.6595 26.0344 21.2424 26.4063 19.8999C26.4247 19.8456 26.4342 19.7886 26.4344 19.7312C26.4433 19.6102 26.4224 19.4889 26.3734 19.3779C26.3245 19.2669 26.249 19.1696 26.1536 19.0946C26.0583 19.0196 25.9459 18.9692 25.8265 18.9478C25.7071 18.9264 25.5843 18.9346 25.4688 18.9718C23.8927 19.4136 22.4597 20.2603 21.3124 21.4278C20.1651 22.5952 19.3435 24.0428 18.9292 25.6263C18.515 27.2099 18.5226 28.8743 18.9512 30.4541C19.3799 32.0338 20.2147 33.4738 21.3726 34.6307C22.5305 35.7877 23.9711 36.6213 25.5512 37.0487C27.1313 37.4761 28.7957 37.4823 30.379 37.0668C31.9622 36.6513 33.409 35.8284 34.5756 34.6802C35.7421 33.5319 36.5877 32.0983 37.0282 30.5218C37.0753 30.3819 37.0753 30.2304 37.0282 30.0906Z" fill="#0A0105"/>
<rect x="0.7" y="0.7" width="54.6" height="54.6" rx="27.3" stroke="#0A0105" stroke-opacity="0.1" stroke-width="1.4"/>
</svg>
